# xmcd CD database file
#
# Track frame offsets:
#	150
#	11434
#	27929
#	41698
#	51585
#	70418
#	79215
#	91860
#	107270
#	114172
#	130056
#	140593
#	159471
#	173191
#	183508
#	198869
#	212914
#
# Disc length: 2943 seconds
#
# Revision: 0
# Processed by: cddbd v1.5.1PL0 Copyright (c) Steve Scherf et al.
# Submitted via: CDex 1.51
#
DISCID=e40b7d11
DTITLE=Cowboy Envy - Real Cowboy Girl
DYEAR=1997
DGENRE=Country
TTITLE0=Back in the Saddle Again
TTITLE1=Real Cowboy Girl
TTITLE2=Cool Water
TTITLE3=Bunkhouse Bugle Boy
TTITLE4=Tumbling Tumbleweeds
TTITLE5=Come and Get It
TTITLE6=Harmony the Cowgirl Way
TTITLE7=Home on the Range
TTITLE8=Ragtime Cowboy Joe
TTITLE9=One More Ride
TTITLE10=Cowboy Jubilee
TTITLE11=High Ridin' Woman
TTITLE12=Don't Fence Me In
TTITLE13=Cowboy Envy
TTITLE14=The Ballad of Jonathan Spain
TTITLE15=Born to be Branded
TTITLE16=Happy Trails
EXTD=YEAR: 1997
EXTT0=
EXTT1=
EXTT2=
EXTT3=
EXTT4=
EXTT5=
EXTT6=
EXTT7=
EXTT8=
EXTT9=
EXTT10=
EXTT11=
EXTT12=
EXTT13=
EXTT14=
EXTT15=
EXTT16=
PLAYORDER=
